<!-- Generator: Adobe Illustrator 21.1.0, SVG Export Plug-In  -->
<svg version="1.1"
	 xmlns="http://www.w3.org/2000/svg" xmlns:xlink="http://www.w3.org/1999/xlink" xmlns:a="http://ns.adobe.com/AdobeSVGViewerExtensions/3.0/"
	 x="0px" y="0px" width="78px" height="82px" viewBox="0 0 78 82" style="enable-background:new 0 0 78 82;" xml:space="preserve">
<style type="text/css">
	.st0{clip-path:url(#SVGID_2_);}
	.st1{clip-path:url(#SVGID_4_);}
</style>
<defs>
</defs>
<g>
	<defs>
		<rect id="SVGID_1_" x="0" y="0" width="78" height="82"/>
	</defs>
	<clipPath id="SVGID_2_">
		<use xlink:href="#SVGID_1_"  style="overflow:visible;"/>
	</clipPath>
	<path class="st0" d="M31.9,0c-0.2,0-0.4,0.1-0.5,0.1l-30,10C0.6,10.4,0,11.2,0,12v37.6c0,7.5,4.5,13.3,10.5,18.2
		c5.9,4.9,13.5,9.1,20.4,13.8c0.6,0.5,1.6,0.5,2.2,0c6.5-4.4,13.5-8.4,19.2-12.9c2.7,2,6,3.3,9.6,3.3c8.8,0,16-7.2,16-16
		c0-8.1-6.1-14.8-14-15.8V12c0-0.8-0.6-1.6-1.4-1.9l-30-10C32.4,0,32.1,0,31.9,0 M32,4.1l28,9.3v26.7c-7.9,1-14,7.7-14,15.8
		c0,3.7,1.3,7.2,3.5,9.9c-5,3.9-11.3,7.6-17.5,11.7c-6.8-4.5-13.8-8.6-19-12.9c-5.5-4.6-9-9.2-9-15.1V13.4L32,4.1z M62,44
		c6.7,0,12,5.3,12,12c0,6.6-5.3,12-12,12s-12-5.4-12-12C50,49.4,55.3,44,62,44 M62,46c-1.1,0-2,0.9-2,2v8c0,1.1,0.9,2,2,2h7
		c1.1,0,2-0.9,2-2s-0.9-2-2-2h-5v-6C64,46.9,63.1,46,62,46"/>
</g>
</svg>
