<!-- Generator: Adobe Illustrator 21.1.0, SVG Export Plug-In  -->
<svg version="1.1"
	 xmlns="http://www.w3.org/2000/svg" xmlns:xlink="http://www.w3.org/1999/xlink" xmlns:a="http://ns.adobe.com/AdobeSVGViewerExtensions/3.0/"
	 x="0px" y="0px" width="96.5px" height="96.4px" viewBox="0 0 96.5 96.4" style="enable-background:new 0 0 96.5 96.4;"
	 xml:space="preserve">
<style type="text/css">
	.st0{clip-path:url(#SVGID_2_);}
	.st1{clip-path:url(#SVGID_4_);}
</style>
<defs>
</defs>
<g>
	<defs>
		<rect id="SVGID_1_" x="0" width="96.5" height="96.4"/>
	</defs>
	<clipPath id="SVGID_2_">
		<use xlink:href="#SVGID_1_"  style="overflow:visible;"/>
	</clipPath>
	<path class="st0" d="M26.3,5.3C5.7,16.2-5.5,41.5,2.7,64c8.6,23.6,32.9,36.7,57.3,31.2c3.5-0.8,2-6.1-1.5-5.3
		c-21.4,4.9-44.7-7.1-51-28.8c-5.7-19.7,2.7-41.8,21.6-51c18.5-9,42.4-4,54.2,13.6c11.2,16.7,9.9,38.1-3.2,53.2
		c-1.4-1.4-2.8-2.8-4.2-4.2c0,0,0,0,0,0c0,0-0.1,0-0.1-0.1c-0.9-0.9-2-0.9-2.9-0.4c-0.9,0.3-1.6,1.1-1.7,2.3c0,0,0,0.1,0,0.1
		c0,0,0,0,0,0V87c0,1.5,1.3,2.8,2.8,2.8h12.5c2.4,0,3.7-3,2-4.7c-1.5-1.5-2.9-2.9-4.4-4.4c15.1-17.1,16.7-42.4,3.1-61.1
		C73.7,0.9,46.8-5.6,26.3,5.3"/>
	<path class="st0" d="M27.6,72.6c7.2-7.2,14.5-14.5,21.7-21.7h18.6c3.6,0,3.6-5.5,0-5.5H48.2c0,0,0,0-0.1,0c-0.2,0-0.4,0-0.5,0.1
		c0,0-0.1,0-0.1,0c-0.1,0-0.3,0.1-0.4,0.1c-0.1,0.1-0.3,0.1-0.4,0.2c0,0,0,0,0,0c-0.2,0.1-0.3,0.2-0.4,0.4c0,0,0,0,0,0
		c-7.5,7.5-15,15-22.6,22.6C21.2,71.2,25.1,75.1,27.6,72.6"/>
</g>
</svg>
