<!-- Generator: Adobe Illustrator 21.1.0, SVG Export Plug-In  -->
<svg version="1.1"
	 xmlns="http://www.w3.org/2000/svg" xmlns:xlink="http://www.w3.org/1999/xlink" xmlns:a="http://ns.adobe.com/AdobeSVGViewerExtensions/3.0/"
	 x="0px" y="0px" width="69.4px" height="91.2px" viewBox="0 0 69.4 91.2" style="enable-background:new 0 0 69.4 91.2;"
	 xml:space="preserve">
<style type="text/css">
	.st0{clip-path:url(#SVGID_2_);}
	.st1{clip-path:url(#SVGID_4_);}
</style>
<defs>
</defs>
<g>
	<defs>
		<rect id="SVGID_1_" x="0" width="69.4" height="91.2"/>
	</defs>
	<clipPath id="SVGID_2_">
		<use xlink:href="#SVGID_1_"  style="overflow:visible;"/>
	</clipPath>
	<path class="st0" d="M69.4,25.4c0-0.5-0.2-1-0.6-1.4L45.9,0.6C45.6,0.2,45,0,44.5,0H10C4.5,0,0,4.5,0,10v71.2c0,5.5,4.5,10,10,10
		h49.4c5.5,0,10-4.5,10-10V25.4z M46.3,6.7l17.3,17.6H49.3c-1.7,0-3-1.3-3-3V6.7z M59.4,87.2H10c-3.3,0-6-2.7-6-6V10
		c0-3.3,2.7-6,6-6h32.3v17.4c0,3.9,3.1,7,7,7h16.1v52.9C65.4,84.5,62.8,87.2,59.4,87.2"/>
	<path class="st0" d="M54.2,43.9h-27c-1.1,0-2,0.9-2,2c0,1.1,0.9,2,2,2h27c1.1,0,2-0.9,2-2C56.2,44.8,55.3,43.9,54.2,43.9"/>
	<path class="st0" d="M15.2,42.9c-1.7,0-3,1.3-3,3c0,1.7,1.3,3,3,3h0c1.7,0,3-1.3,3-3C18.3,44.2,16.9,42.9,15.2,42.9
		C15.3,42.9,15.2,42.9,15.2,42.9"/>
	<path class="st0" d="M54.2,56.9h-27c-1.1,0-2,0.9-2,2c0,1.1,0.9,2,2,2h27c1.1,0,2-0.9,2-2C56.2,57.8,55.3,56.9,54.2,56.9"/>
	<path class="st0" d="M15.2,55.9c-1.7,0-3,1.3-3,3c0,1.7,1.3,3,3,3h0c1.7,0,3-1.3,3-3C18.3,57.2,16.9,55.9,15.2,55.9
		C15.3,55.9,15.2,55.9,15.2,55.9"/>
	<path class="st0" d="M54.2,69.9h-27c-1.1,0-2,0.9-2,2c0,1.1,0.9,2,2,2h27c1.1,0,2-0.9,2-2C56.2,70.8,55.3,69.9,54.2,69.9"/>
	<path class="st0" d="M15.2,68.9c-1.7,0-3,1.3-3,3c0,1.7,1.3,3,3,3h0c1.7,0,3-1.3,3-3C18.3,70.2,16.9,68.9,15.2,68.9
		C15.3,68.9,15.2,68.9,15.2,68.9"/>
</g>
</svg>
