<!-- Generator: Adobe Illustrator 21.1.0, SVG Export Plug-In  -->
<svg version="1.1"
	 xmlns="http://www.w3.org/2000/svg" xmlns:xlink="http://www.w3.org/1999/xlink" xmlns:a="http://ns.adobe.com/AdobeSVGViewerExtensions/3.0/"
	 x="0px" y="0px" width="52px" height="52px" viewBox="0 0 52 52" style="enable-background:new 0 0 52 52;" xml:space="preserve">
<style type="text/css">
	.st0{clip-path:url(#SVGID_2_);}
	.st1{clip-path:url(#SVGID_4_);}
</style>
<defs>
</defs>
<polygon points="0,0 0,10 4,10 4,4 10,4 10,0 "/>
<polygon points="42,0 42,4 48,4 48,10 52,10 52,0 "/>
<polygon points="48,42 48,48 42,48 42,52 52,52 52,42 "/>
<polygon points="0,42 0,52 10,52 10,48 4,48 4,42 "/>
<g>
	<defs>
		<rect id="SVGID_1_" y="0" width="52" height="52"/>
	</defs>
	<clipPath id="SVGID_2_">
		<use xlink:href="#SVGID_1_"  style="overflow:visible;"/>
	</clipPath>
	<path class="st0" d="M36.9,27H40v-2h-3.1c-0.5-5.3-4.7-9.5-9.9-9.9V12h-2v3.1c-5.3,0.5-9.5,4.7-9.9,9.9H12v2h3.1
		c0.5,5.3,4.7,9.5,9.9,9.9V40h2v-3.1C32.3,36.5,36.5,32.3,36.9,27 M27,34.9v-5.1c1.4-0.4,2.5-1.5,2.9-2.9h5.1
		C34.5,31.2,31.2,34.5,27,34.9 M26,24c1.1,0,2,0.9,2,2c0,1.1-0.9,2-2,2c-1.1,0-2-0.9-2-2C24,24.9,24.9,24,26,24 M34.9,25h-5.1
		c-0.4-1.4-1.5-2.5-2.9-2.9v-5.1C31.2,17.5,34.5,20.8,34.9,25 M25,17.1v5.1c-1.4,0.4-2.5,1.5-2.9,2.9h-5.1
		C17.5,20.8,20.8,17.5,25,17.1 M17.1,27h5.1c0.4,1.4,1.5,2.5,2.9,2.9v5.1C20.8,34.5,17.5,31.2,17.1,27"/>
	<path class="st0" d="M42,22.8l2-0.4c-1.4-7.3-7.1-13-14.4-14.4l-0.4,2C35.7,11.3,40.7,16.3,42,22.8"/>
	<path class="st0" d="M10,22.8c1.3-6.5,6.3-11.5,12.8-12.8l-0.4-2C15.1,9.5,9.5,15.1,8,22.4L10,22.8z"/>
	<path class="st0" d="M42,29.2c-1.3,6.5-6.3,11.5-12.8,12.8l0.4,2c7.3-1.4,13-7.1,14.4-14.4L42,29.2z"/>
	<path class="st0" d="M10,29.2l-2,0.4c1.4,7.3,7.1,13,14.4,14.4l0.4-2C16.3,40.7,11.3,35.7,10,29.2"/>
</g>
</svg>
