<!-- Generator: Adobe Illustrator 21.1.0, SVG Export Plug-In  -->
<svg version="1.1"
	 xmlns="http://www.w3.org/2000/svg" xmlns:xlink="http://www.w3.org/1999/xlink" xmlns:a="http://ns.adobe.com/AdobeSVGViewerExtensions/3.0/"
	 x="0px" y="0px" width="95.9px" height="65.7px" viewBox="0 0 95.9 65.7" style="enable-background:new 0 0 95.9 65.7;"
	 xml:space="preserve">
<defs>
</defs>
<polygon points="32.2,38.6 20.5,45.7 22.4,46.8 22.4,49 34.1,41.8 32.2,40.7 "/>
<polygon points="75.5,45.7 63.8,38.6 63.8,40.7 61.9,41.8 73.6,49 73.6,46.8 "/>
<polygon points="48,0 40.2,4.5 40.2,13.4 48,17.9 55.8,13.4 55.8,4.5 "/>
<polygon points="15.8,39.8 15.8,33.2 10.2,29.9 4.5,33.2 4.5,39.8 10.2,43.1 "/>
<polygon points="91.5,39.8 91.5,33.2 85.8,29.9 80.2,33.2 80.2,39.8 85.8,43.1 "/>
<polyline points="46.8,33.6 46.8,23 41.3,19.8 34.3,23.8 34.3,39.5 48,47.4 61.6,39.5 61.6,23.8 54.6,19.8 49,23 49,33.6 "/>
<polygon points="11.2,47.4 11.2,55.3 9,55.3 9,47.4 5,45.1 0,48 0,59.8 10.1,65.7 20.2,59.8 20.2,48 15.2,45.1 "/>
<polygon points="86.9,47.4 86.9,55.3 84.7,55.3 84.7,47.4 80.7,45.1 75.7,48 75.7,59.8 85.8,65.7 95.9,59.8 95.9,48 90.9,45.1 "/>
</svg>
