<svg
 xmlns="http://www.w3.org/2000/svg"
 xmlns:xlink="http://www.w3.org/1999/xlink"
 width="32px" height="32px" viewBox="0 0 32 32">
<path fill-rule="evenodd"  fill="rgb(223, 165, 41)"
 d="M31.000,31.999 L1.000,31.999 C0.448,31.999 -0.000,31.551 -0.000,30.999 L-0.000,0.999 C-0.000,0.447 0.448,-0.001 1.000,-0.001 L16.000,-0.001 L16.000,1.999 L2.000,1.999 L2.000,29.999 L30.000,29.999 L30.000,16.999 L32.000,16.999 L32.000,30.999 C32.000,31.551 31.552,31.999 31.000,31.999 ZM17.000,17.999 C16.734,18.001 16.479,17.897 16.290,17.709 L10.290,11.709 L11.700,10.299 L17.000,15.589 L30.290,2.289 L31.700,3.699 L17.700,17.699 C17.515,17.888 17.264,17.996 17.000,17.999 Z"/>
</svg>
