<!-- Generator: Adobe Illustrator 21.1.0, SVG Export Plug-In  -->
<svg version="1.1"
	 xmlns="http://www.w3.org/2000/svg" xmlns:xlink="http://www.w3.org/1999/xlink" xmlns:a="http://ns.adobe.com/AdobeSVGViewerExtensions/3.0/"
	 x="0px" y="0px" width="94.1px" height="93.2px" viewBox="0 0 94.1 93.2" style="enable-background:new 0 0 94.1 93.2;"
	 xml:space="preserve">
<style type="text/css">
	.st0{clip-path:url(#SVGID_2_);}
	.st1{clip-path:url(#SVGID_4_);}
</style>
<defs>
</defs>
<g>
	<defs>
		<rect id="SVGID_1_" width="94.1" height="93.2"/>
	</defs>
	<clipPath id="SVGID_2_">
		<use xlink:href="#SVGID_1_"  style="overflow:visible;"/>
	</clipPath>
	<path class="st0" d="M76.2,19.5c0.7,0,1.3,0.6,1.3,1.3s-0.6,1.3-1.3,1.3c-0.7,0-1.3-0.6-1.3-1.3S75.5,19.5,76.2,19.5"/>
	<path class="st0" d="M17.8,19.3c0.7,0,1.3,0.6,1.3,1.3s-0.6,1.3-1.3,1.3c-0.7,0-1.3-0.6-1.3-1.3S17.1,19.3,17.8,19.3"/>
	<path class="st0" d="M18,74c0.7,0,1.3,0.6,1.3,1.3c0,0.7-0.6,1.3-1.3,1.3c-0.7,0-1.3-0.6-1.3-1.3C16.7,74.6,17.3,74,18,74"/>
	<path class="st0" d="M47.1,36.8h-0.3c-5.8,0-16.6-9.4-20.9-13.4c-1-0.9-1.8-1.9-2.2-3.2c-0.5-1.2-1.2-2-1.8-2.6
		c1-1.3,2.6-2.9,5.1-4.5c5.9-3.8,9.4-7.8,10.5-9.9c1.2-2.1,1.1-3.1-1-3.2c-2.1-0.1-6.8,3.6-6.8,3.6s-6.3,5.3-10.5,12.5
		c-1.2-0.2-2.9-0.2-4.3,1c-2.3,1.9-1.8,4.8-1,6.2c-0.7,0.6-1.5,1.2-2.5,1.8c-6,4.1-9.4,8.1-10.6,10.1c-1.2,2.1-1.1,3.1,1,3.2
		c2.1,0.1,6.8-3.6,6.8-3.6s4.2-3.6,8.1-8.8c0.8,0.4,2,1,3.5,1.7c0.4,0.2,0.7,0.4,1.1,0.6c3.1,2.6,6.9,8.6,9.7,13.5
		c2.2,3.8,2.2,8.6,0,12.4c-2.8,5-6.8,11.3-9.9,13.9c-0.3,0.3-0.7,0.5-1,0.6c-0.7,0.3-1.2,0.6-1.7,0.8c-4.2-6.4-9.6-11-9.6-11
		S4.1,54.8,2,54.9C-0.1,55-0.2,56,1,58.1c1.2,2.1,4.6,6.1,10.5,9.9c1.7,1.1,3,2.2,4,3.2c-0.6,0.4-1,0.7-1.3,1.1
		c-0.9,1-2.1,4.6,0.6,6.8c1.9,1.6,4.1,1.2,5.3,0.8c0.3-0.1,0.6-0.2,0.8-0.4c4.1,5.9,8.9,10,8.9,10s4.7,3.7,6.8,3.6
		c2.1-0.1,2.2-1.1,1-3.2c-1.2-2.1-4.6-6.1-10.5-9.9c-1.7-1.1-2.9-2.2-3.9-3.1c0.1-0.2,0.2-0.4,0.3-0.7c0.5-1.3,1.3-2.4,2.3-3.3
		c4.3-4,15-13.4,20.9-13.4 M46.6,59.6c5.8,0,17.1,9.4,21.5,13.4c1,0.9,1.8,2.1,2.3,3.3c0.2,0.4,0.3,0.7,0.5,1
		c-0.9,0.9-2.1,1.9-3.6,2.8c-5.9,3.8-9.4,7.8-10.5,9.9c-1.2,2.1-1.1,3.1,1,3.2c2.1,0.1,6.8-3.6,6.8-3.6s4.8-4.1,8.8-9.9
		c0.1,0.1,0.3,0.1,0.4,0.2c1.2,0.4,3.4,0.8,5.3-0.8c2.7-2.2,1.5-5.8,0.6-6.8c-0.3-0.3-0.6-0.6-1-0.9c1-1.1,2.3-2.2,4.2-3.4
		c5.9-3.8,9.4-7.8,10.5-9.9c1.2-2.1,1.1-3.1-1-3.2c-2.1-0.1-6.8,3.6-6.8,3.6s-5.5,4.7-9.7,11.2c-0.6-0.3-1.3-0.6-2.1-1
		c-0.4-0.2-0.7-0.4-1.1-0.6c-3.1-2.6-6.9-8.6-9.7-13.5c-2.2-3.8-2.2-8.6,0-12.4c2.8-5,6.8-11.3,9.9-13.9c0.3-0.3,0.7-0.5,1.1-0.6
		c1.6-0.7,2.7-1.2,3.5-1.7c3.9,5.3,8.1,8.8,8.1,8.8s4.7,3.7,6.8,3.6c2.1-0.1,2.2-1.1,1-3.2c-1.2-2.1-4.6-6.1-10.5-9.9
		c-1-0.6-1.8-1.3-2.5-1.9c0.7-1.5,1.2-4.3-1-6.2c-1.4-1.2-3-1.2-4.2-1C70.8,9.1,64.5,3.8,64.5,3.8s-4.7-3.7-6.8-3.6
		c-2.1,0.1-2.2,1.1-1,3.2c1.2,2.1,4.6,6.1,10.5,9.9c2.4,1.6,4,3.1,5.1,4.4c-0.6,0.5-1.3,1.4-1.8,2.5c-0.5,1.3-1.3,2.4-2.3,3.3
		c-4.3,4-15.3,13.4-21.2,13.4 M75.6,18.5c1.8-0.4,3.4,1.2,3,3c-0.2,0.9-0.9,1.6-1.8,1.8c-1.8,0.4-3.4-1.2-3-3
		C74,19.4,74.7,18.7,75.6,18.5 M18.4,23c-1.8,0.4-3.4-1.2-3-3c0.2-0.9,0.9-1.6,1.8-1.8c1.8-0.4,3.4,1.2,3,3
		C20,22.1,19.3,22.8,18.4,23 M18.6,77.7c-1.8,0.4-3.4-1.2-3-3c0.2-0.9,0.9-1.6,1.8-1.8c1.8-0.4,3.4,1.2,3,3
		C20.2,76.8,19.5,77.5,18.6,77.7 M76.3,77.4c-1.8,0.4-3.4-1.2-3-3c0.2-0.9,0.9-1.6,1.8-1.8c1.8-0.4,3.4,1.2,3,3
		C77.9,76.5,77.2,77.2,76.3,77.4"/>
	<path class="st0" d="M75.7,73.8c0.7,0,1.3,0.6,1.3,1.3s-0.6,1.3-1.3,1.3c-0.7,0-1.3-0.6-1.3-1.3S75,73.8,75.7,73.8"/>
</g>
</svg>
