<!-- Generator: Adobe Illustrator 21.1.0, SVG Export Plug-In  -->
<svg version="1.1"
	 xmlns="http://www.w3.org/2000/svg" xmlns:xlink="http://www.w3.org/1999/xlink" xmlns:a="http://ns.adobe.com/AdobeSVGViewerExtensions/3.0/"
	 x="0px" y="0px" width="189.9px" height="30.9px" viewBox="0 0 189.9 30.9" style="enable-background:new 0 0 189.9 30.9;"
	 xml:space="preserve">
<defs>
</defs>
<polygon points="97.8,15.9 93,20.7 80.7,20.7 80.7,15.9 "/>
<polygon points="83.4,2.3 77.7,8 77.7,28.6 82.7,28.6 82.7,7.1 95.5,7.1 95.5,28.6 100.6,28.6 100.6,8 94.8,2.3 "/>
<path d="M142.7,7.1h12.8v7.4h-10.5l-2.3,2.3V7.1z M159.1,25.9v-2.1h-16.5v-4.7H155l5.5-5.5V8l-5.7-5.7h-11.4L137.6,8v14.9l5.7,5.7
	h13L159.1,25.9z"/>
<polygon points="185.4,2.3 165.2,26.3 165.2,28.6 169.5,28.6 189.5,4.7 189.5,2.3 "/>
<polygon points="71.2,22.9 71.2,18.8 65.4,13 54.2,13 54.2,7.1 67.5,7.1 70.2,4.3 70.2,2.3 54.9,2.3 49.2,8 49.2,12.1 54.9,17.8
	66.1,17.8 66.1,23.8 52.9,23.8 50.1,26.5 50.1,28.6 65.4,28.6 "/>
<path d="M115,15.9l-2.3,2.3V7.1h13v8.8H115z M131,28.6v-2.2l-5.3-6.3l5.1-5.1V8L125,2.3h-11.7L107.7,8v20.6h5v-8.1h7.2l6.8,8.1H131z
	"/>
<polygon points="165.6,2.3 165.6,4.7 185.6,28.6 189.9,28.6 189.9,26.3 177.6,11.6 176.2,13.2 176.2,10 169.7,2.3 "/>
<polygon points="30.9,5.7 28.4,5.7 21.4,12.7 21.4,18.2 28.4,25.2 30.9,25.2 30.9,21.2 25.1,15.4 30.9,9.7 "/>
<polygon points="21.2,0 15.4,5.8 9.7,0 5.7,0 5.7,2.5 12.7,9.5 18.2,9.5 25.2,2.5 25.2,0 "/>
<polygon points="12.7,21.4 5.7,28.4 5.7,30.9 9.7,30.9 15.4,25.1 21.2,30.9 25.2,30.9 25.2,28.4 18.2,21.4 "/>
<polygon points="0,5.7 0,9.7 5.8,15.4 0,21.2 0,25.2 2.5,25.2 9.5,18.2 9.5,12.7 2.5,5.7 "/>
</svg>
