<svg
 xmlns="http://www.w3.org/2000/svg"
 xmlns:xlink="http://www.w3.org/1999/xlink"
 width="13px" height="19px" viewBox="0 0 13 19">
<path fill-rule="evenodd" fill="rgb(223, 165, 41)"
 d="M7.357,18.746 C6.949,18.594 6.573,18.374 6.240,18.094 C2.110,14.623 -0.219,9.325 0.010,3.920 C0.079,2.296 1.164,0.886 2.710,0.413 L3.694,0.111 C4.242,-0.057 4.816,-0.040 5.354,0.162 C6.269,0.504 6.910,1.325 7.027,2.301 L7.386,5.323 C7.420,5.610 7.386,5.905 7.286,6.175 C7.127,6.604 6.816,6.956 6.409,7.165 L6.030,7.360 C5.652,7.553 5.434,7.966 5.484,8.388 C5.608,9.418 6.040,10.368 6.736,11.135 C7.015,11.444 7.483,11.549 7.866,11.392 L8.261,11.230 C8.948,10.948 9.787,11.137 10.286,11.689 L12.327,13.936 C12.988,14.663 13.187,15.687 12.846,16.608 C12.607,17.255 12.132,17.772 11.508,18.065 L10.300,18.630 C9.381,19.060 8.309,19.102 7.357,18.746 ZM4.811,1.630 C4.596,1.549 4.367,1.543 4.149,1.609 L3.164,1.911 C2.249,2.191 1.607,3.026 1.566,3.987 C1.358,8.908 3.478,13.732 7.238,16.892 C7.897,17.446 8.866,17.573 9.642,17.210 L10.850,16.644 C11.100,16.527 11.291,16.320 11.386,16.062 C11.522,15.694 11.442,15.284 11.177,14.993 L9.137,12.745 C9.054,12.655 8.913,12.654 8.849,12.680 L8.454,12.843 C7.480,13.242 6.295,12.973 5.585,12.190 C4.670,11.180 4.100,9.930 3.938,8.575 C3.810,7.504 4.365,6.455 5.321,5.965 L5.700,5.770 C5.741,5.748 5.796,5.707 5.825,5.629 C5.840,5.590 5.844,5.550 5.839,5.509 L5.480,2.487 C5.434,2.095 5.177,1.767 4.811,1.630 Z"/>
</svg>
