<svg
 xmlns="http://www.w3.org/2000/svg"
 xmlns:xlink="http://www.w3.org/1999/xlink"
 width="7px" height="14px" viewBox="0 0 7 14">
<path fill-rule="evenodd"  fill="rgb(255, 255, 255)"
 d="M2.078,8.063 L2.078,13.715 L4.746,13.715 L4.746,8.064 L6.565,8.064 L7.007,5.641 L4.757,5.641 C4.757,5.641 4.757,4.429 4.757,3.796 C4.757,3.554 4.878,3.230 5.249,3.230 C5.827,3.230 6.560,3.230 6.560,3.230 L6.560,0.784 C6.560,0.784 5.387,0.784 4.135,0.784 C3.303,0.784 2.075,1.870 2.075,3.020 C2.075,4.211 2.075,5.633 2.075,5.633 L0.527,5.633 L0.527,8.063 L2.078,8.063 Z"/>
</svg>
