<svg
 xmlns="http://www.w3.org/2000/svg"
 xmlns:xlink="http://www.w3.org/1999/xlink"
 width="15px" height="11px" viewBox="0 0 15 11">
<path fill-rule="evenodd"  fill="rgb(255, 255, 255)"
 d="M13.696,1.778 C13.328,1.124 12.929,1.005 12.116,0.959 C11.304,0.904 9.263,0.881 7.494,0.881 L7.494,0.881 C5.722,0.881 3.680,0.904 2.870,0.959 C2.059,1.005 1.659,1.124 1.288,1.778 C0.909,2.431 0.714,3.554 0.714,5.533 L0.714,5.533 C0.714,5.534 0.714,5.536 0.714,5.536 C0.714,5.537 0.714,5.538 0.714,5.538 L0.714,5.540 C0.714,7.510 0.909,8.643 1.288,9.288 C1.659,9.941 2.059,10.061 2.870,10.115 C3.680,10.161 5.722,10.189 7.494,10.189 L7.494,10.189 C9.263,10.189 11.304,10.161 12.116,10.115 C12.929,10.061 13.328,9.941 13.696,9.288 C14.079,8.643 14.272,7.510 14.272,5.540 C14.272,5.540 14.272,5.537 14.272,5.536 C14.272,5.536 14.272,5.534 14.272,5.533 C14.272,3.554 14.079,2.431 13.696,1.778 ZM6.224,7.973 L6.224,3.086 L10.071,5.536 L6.224,7.973 Z"/>
</svg>
