<svg
 xmlns="http://www.w3.org/2000/svg"
 xmlns:xlink="http://www.w3.org/1999/xlink"
 width="14px" height="15px" viewBox="0 0 14 15">
<path fill-rule="evenodd"  fill="rgb(255, 255, 255)"
 d="M13.560,10.672 C13.528,11.414 13.414,11.921 13.248,12.364 C13.077,12.822 12.847,13.211 12.474,13.598 C12.101,13.986 11.727,14.224 11.285,14.402 C10.859,14.575 10.371,14.692 9.656,14.726 C8.941,14.760 8.712,14.768 6.889,14.768 C5.067,14.768 4.838,14.760 4.122,14.726 C3.408,14.692 2.920,14.575 2.493,14.402 C2.052,14.224 1.677,13.986 1.304,13.598 C0.931,13.211 0.702,12.822 0.530,12.364 C0.364,11.921 0.251,11.414 0.218,10.672 C0.186,9.929 0.178,9.692 0.178,7.799 C0.178,5.906 0.186,5.669 0.218,4.926 C0.251,4.184 0.364,3.678 0.530,3.234 C0.702,2.776 0.931,2.387 1.304,2.000 C1.677,1.612 2.052,1.374 2.493,1.196 C2.920,1.024 3.408,0.906 4.122,0.873 C4.838,0.838 5.067,0.830 6.889,0.830 C8.712,0.830 8.941,0.838 9.656,0.873 C10.371,0.906 10.859,1.024 11.285,1.196 C11.727,1.374 12.101,1.612 12.474,2.000 C12.847,2.387 13.077,2.776 13.248,3.234 C13.414,3.678 13.528,4.184 13.560,4.926 C13.593,5.669 13.601,5.906 13.601,7.799 C13.601,9.692 13.593,9.929 13.560,10.672 ZM12.352,4.983 C12.322,4.304 12.213,3.935 12.121,3.689 C11.999,3.364 11.854,3.132 11.619,2.888 C11.384,2.644 11.161,2.493 10.847,2.366 C10.611,2.271 10.256,2.158 9.601,2.127 C8.893,2.093 8.681,2.086 6.889,2.086 C5.097,2.086 4.885,2.093 4.177,2.127 C3.523,2.158 3.168,2.271 2.931,2.366 C2.618,2.493 2.394,2.644 2.159,2.888 C1.925,3.132 1.779,3.364 1.657,3.689 C1.566,3.935 1.456,4.304 1.426,4.983 C1.394,5.718 1.387,5.938 1.387,7.799 C1.387,9.660 1.394,9.880 1.426,10.615 C1.456,11.295 1.566,11.663 1.657,11.909 C1.779,12.235 1.925,12.466 2.159,12.710 C2.394,12.955 2.618,13.105 2.931,13.232 C3.168,13.327 3.523,13.441 4.177,13.472 C4.885,13.505 5.097,13.512 6.889,13.512 C8.681,13.512 8.894,13.505 9.601,13.472 C10.256,13.441 10.611,13.327 10.847,13.232 C11.161,13.105 11.384,12.955 11.619,12.710 C11.854,12.466 11.999,12.235 12.121,11.909 C12.213,11.663 12.322,11.295 12.352,10.615 C12.384,9.880 12.391,9.660 12.391,7.799 C12.391,5.938 12.384,5.718 12.352,4.983 ZM10.472,4.916 C10.027,4.916 9.666,4.541 9.666,4.079 C9.666,3.617 10.027,3.243 10.472,3.243 C10.917,3.243 11.277,3.617 11.277,4.079 C11.277,4.541 10.917,4.916 10.472,4.916 ZM6.889,11.378 C4.986,11.378 3.443,9.776 3.443,7.799 C3.443,5.823 4.986,4.221 6.889,4.221 C8.793,4.221 10.335,5.823 10.335,7.799 C10.335,9.776 8.793,11.378 6.889,11.378 ZM6.889,5.477 C5.654,5.477 4.652,6.516 4.652,7.799 C4.652,9.082 5.654,10.122 6.889,10.122 C8.125,10.122 9.126,9.082 9.126,7.799 C9.126,6.516 8.125,5.477 6.889,5.477 Z"/>
</svg>
