<svg
 xmlns="http://www.w3.org/2000/svg"
 xmlns:xlink="http://www.w3.org/1999/xlink"
 width="16px" height="14px" viewBox="0 0 16 14">
<path fill-rule="evenodd"  fill="rgb(255, 255, 255)"
 d="M15.940,2.254 C15.383,2.504 14.791,2.669 14.173,2.749 C14.809,2.362 15.294,1.753 15.523,1.018 C14.930,1.379 14.275,1.634 13.579,1.777 C13.015,1.165 12.213,0.786 11.337,0.786 C9.640,0.786 8.273,2.192 8.273,3.917 C8.273,4.166 8.293,4.404 8.343,4.632 C5.794,4.505 3.538,3.257 2.023,1.357 C1.760,1.826 1.604,2.362 1.604,2.939 C1.604,4.024 2.151,4.984 2.966,5.541 C2.474,5.532 1.990,5.386 1.581,5.155 C1.581,5.166 1.581,5.177 1.581,5.189 C1.581,6.711 2.644,7.975 4.038,8.266 C3.788,8.337 3.516,8.370 3.233,8.370 C3.037,8.370 2.839,8.358 2.653,8.316 C3.051,9.556 4.178,10.467 5.518,10.497 C4.475,11.331 3.151,11.833 1.716,11.833 C1.465,11.833 1.223,11.821 0.983,11.789 C2.341,12.683 3.951,13.195 5.687,13.195 C11.329,13.195 14.414,8.422 14.414,4.285 C14.414,4.147 14.409,4.013 14.403,3.881 C15.011,3.439 15.523,2.889 15.940,2.254 Z"/>
</svg>
