<svg
 xmlns="http://www.w3.org/2000/svg"
 xmlns:xlink="http://www.w3.org/1999/xlink"
 width="15px" height="14px" viewBox="0 0 15 14">
<path fill-rule="evenodd"  fill="rgb(255, 255, 255)"
 d="M0.722,6.741 L4.034,7.970 L5.316,12.067 C5.398,12.329 5.721,12.427 5.935,12.253 L7.782,10.756 C7.975,10.600 8.251,10.592 8.453,10.738 L11.783,13.141 C12.012,13.306 12.337,13.181 12.394,12.906 L14.834,1.245 C14.896,0.944 14.599,0.693 14.311,0.804 L0.718,6.016 C0.383,6.144 0.386,6.616 0.722,6.741 ZM5.110,7.316 L11.582,3.354 C11.699,3.283 11.818,3.439 11.719,3.531 L6.377,8.466 C6.189,8.640 6.068,8.872 6.033,9.125 L5.851,10.465 C5.827,10.644 5.574,10.662 5.525,10.488 L4.825,8.044 C4.745,7.766 4.861,7.468 5.110,7.316 Z"/>
</svg>
