<svg
 xmlns="http://www.w3.org/2000/svg"
 xmlns:xlink="http://www.w3.org/1999/xlink"
 width="16px" height="10px" viewBox="0 0 16 10">
<path fill-rule="evenodd"  fill="rgb(255, 255, 255)"
 d="M8.006,9.544 L8.907,9.544 C8.907,9.544 9.180,9.513 9.319,9.358 C9.447,9.217 9.443,8.950 9.443,8.950 C9.443,8.950 9.425,7.702 9.986,7.518 C10.540,7.337 11.251,8.724 12.004,9.258 C12.574,9.661 13.007,9.573 13.007,9.573 L15.021,9.544 C15.021,9.544 16.075,9.477 15.575,8.622 C15.534,8.553 15.284,7.990 14.077,6.835 C12.814,5.625 12.984,5.822 14.505,3.730 C15.432,2.456 15.802,1.678 15.686,1.345 C15.576,1.028 14.895,1.112 14.895,1.112 L12.627,1.126 C12.627,1.126 12.458,1.103 12.334,1.180 C12.212,1.255 12.133,1.430 12.133,1.430 C12.133,1.430 11.774,2.416 11.296,3.254 C10.286,5.023 9.882,5.117 9.717,5.007 C9.332,4.750 9.429,3.979 9.429,3.430 C9.429,1.715 9.681,1.001 8.938,0.816 C8.691,0.755 8.509,0.714 7.879,0.707 C7.069,0.699 6.385,0.710 5.997,0.906 C5.739,1.036 5.540,1.327 5.661,1.343 C5.811,1.364 6.150,1.438 6.330,1.690 C6.563,2.016 6.555,2.749 6.555,2.749 C6.555,2.749 6.688,4.767 6.243,5.017 C5.937,5.189 5.518,4.838 4.617,3.234 C4.156,2.412 3.808,1.503 3.808,1.503 C3.808,1.503 3.740,1.333 3.621,1.242 C3.475,1.132 3.272,1.097 3.272,1.097 L1.117,1.112 C1.117,1.112 0.793,1.121 0.674,1.267 C0.569,1.395 0.666,1.662 0.666,1.662 C0.666,1.662 2.353,5.734 4.264,7.786 C6.016,9.667 8.006,9.544 8.006,9.544 Z"/>
</svg>
