<!-- Generator: Adobe Illustrator 21.1.0, SVG Export Plug-In  -->
<svg version="1.1"
	 xmlns="http://www.w3.org/2000/svg" xmlns:xlink="http://www.w3.org/1999/xlink" xmlns:a="http://ns.adobe.com/AdobeSVGViewerExtensions/3.0/"
	 x="0px" y="0px" width="61.5px" height="66.8px" viewBox="0 0 61.5 66.8" style="enable-background:new 0 0 61.5 66.8;"
	 xml:space="preserve">
<style type="text/css">
	.st0{clip-path:url(#SVGID_2_);}
	.st1{clip-path:url(#SVGID_4_);}
</style>
<defs>
</defs>
<g>
	<defs>
		<rect id="SVGID_1_" y="0" width="61.5" height="66.8"/>
	</defs>
	<clipPath id="SVGID_2_">
		<use xlink:href="#SVGID_1_"  style="overflow:visible;"/>
	</clipPath>
	<path class="st0" d="M54.5,45.1L54.5,45.1c-6.2-3.9-10-6.3-12.4-7.7c3.8-4.6,6.2-11.3,6.2-17.9C48.3,8.2,41.1,0,31.1,0
		S13.9,8.2,13.9,19.5c0,6.4,2.3,13,5.9,17.6c-2.6,1.4-6.7,3.8-13.2,8C2.4,47.9,0,52.6,0,57.8v3.9c0,2.8,2.2,5.1,5,5.1h51.5
		c2.7,0,5-2.3,5-5.1v-3.9C61.3,52.6,58.7,47.8,54.5,45.1 M55.5,61.1H5.6v-3.3c0-3.2,1.6-6.2,4-7.9c6.3-4,14-8.6,15.6-9.2
		c1-0.2,1.9-1,2.2-2c0.3-1.1-0.1-2.3-1-3.1c-4-3.2-6.7-9.8-6.7-16.1c0-8.2,4.6-13.7,11.4-13.7c6.8,0,11.4,5.5,11.4,13.7
		c0,6.5-2.9,13.2-6.9,16.3c-0.9,0.7-1.3,1.8-1.1,2.9c0.2,1,1,1.8,1.9,2.2c1.3,0.6,8.6,5,14.9,9.1c2.5,1.7,4.1,4.7,4.1,7.9v3.2H55.5z
		"/>
</g>
</svg>
