<svg
 xmlns="http://www.w3.org/2000/svg"
 xmlns:xlink="http://www.w3.org/1999/xlink"
 width="11px" height="23px">
<path fill-rule="evenodd" class="hero-scroll-svg-1" fill="rgb(223, 165, 41)"
 d="M5.974,22.811 L10.784,18.188 C11.052,17.930 11.052,17.512 10.784,17.254 C10.516,16.996 10.081,16.996 9.812,17.254 L5.488,21.411 L1.164,17.254 C0.896,16.996 0.461,16.996 0.192,17.254 C-0.077,17.512 -0.077,17.930 0.192,18.188 L5.002,22.811 C5.126,22.931 5.298,23.004 5.488,23.004 C5.678,23.004 5.850,22.931 5.974,22.811 Z"/>
<path fill-rule="evenodd"  class="hero-scroll-svg-2" opacity="0.2" fill="rgb(255, 255, 255)"
 d="M5.974,0.197 L10.784,4.820 C11.052,5.078 11.052,5.496 10.784,5.754 C10.516,6.012 10.081,6.012 9.812,5.754 L5.488,1.598 L1.164,5.754 C0.896,6.012 0.461,6.012 0.192,5.754 C-0.077,5.496 -0.077,5.078 0.192,4.820 L5.002,0.197 C5.126,0.078 5.298,0.004 5.488,0.004 C5.678,0.004 5.850,0.078 5.974,0.197 Z"/>
</svg>
